<?xml version="1.0" encoding="UTF-8" standalone="no"?>
<svg
        version="1.1"
        id="svg6"
        width="24"
        height="24"
        xmlns="http://www.w3.org/2000/svg"
        xmlns:svg="http://www.w3.org/2000/svg">
    <defs
            id="defs10"/>
    <style
            type="text/css"
            id="style2">
        .st1{fill:#37B34A;}
    </style>
    <path
            class="st1"
            d="M 11.975052,0 C 9.929314,0 6.561331,0.09979 4.590437,0.324324 1.89605,0.648649 0.823285,2.045738 0.548857,4.590437 0.324324,6.536383 0.174636,9.355509 0.174636,12 c 0,2.644491 0.0499,5.488565 0.374221,7.409563 0.424116,2.544699 1.621621,3.866944 4.066528,4.266113 C 6.561331,24 10.128898,24 12,24 c 1.846154,0 5.438669,0 7.384615,-0.324324 2.444907,-0.399169 3.617464,-1.721414 4.066528,-4.266113 0.349273,-1.945946 0.374221,-4.914761 0.374221,-7.409563 0,-2.519751 -0.224532,-5.862786 -0.374221,-7.409563 C 23.176715,1.945946 22.054054,0.673597 19.384615,0.299376 17.413721,0.049896 14.045738,0 11.975052,0 Z m 8.307692,2.719335 c 0.523909,0.224532 1.446986,1.571725 1.222454,3.068607 -1.02287,0.823285 -2.245323,1.422037 -3.442828,1.596673 v 9.48025 h 3.517672 c 0,1.446985 -0.224533,2.619542 -0.474013,3.043659 H 14.644491 V 7.534304 h -4.490645 v 7.384615 c 0,3.717256 -2.095634,5.563409 -4.765073,5.563409 -0.74844,0 -1.646569,-0.09979 -2.419958,-0.324324 -0.349272,-0.49896 -0.523909,-1.920998 -0.573805,-3.717256 1.77131,0.873181 4.191269,1.27235 4.390853,-1.521829 V 8.008316 C 4.066528,8.307692 3.068607,10.203742 2.14553,11.476091 2.17048,9.779626 2.24532,8.257796 2.345114,7.209979 4.216216,5.189189 6.286902,4.266112 10.378378,4.266112 h 5.837838 c 1.422038,0 2.794179,-0.523908 4.066528,-1.546777 z"
            id="path4"
            style="stroke-width:0.24948;fill:#ffffff;fill-opacity:1"/>
</svg>
